<svg width="1484" height="837" viewBox="0 0 1484 837" fill="none" xmlns="http://www.w3.org/2000/svg">
<g clip-path="url(#clip0_682_572)">
<path d="M1258.76 336.706C1077.46 264.253 632.61 196.511 264.389 243.617C207.731 250.795 178 272.441 178 304.068C178 397.27 564.957 569.765 868.666 606.889C901.09 610.814 975.811 611.599 1020.35 599.262C1151.06 563.036 1266.28 485.2 1297.25 420.262C1315.42 382.016 1306.78 355.997 1258.65 336.706" fill="#CD1A1C"/>
<path fill-rule="evenodd" clip-rule="evenodd" d="M718.999 380.56C745.028 380.56 771.73 385.943 771.73 425.534V439.441H665.708V442.245C665.708 461.423 673.224 466.695 701.049 466.695H770.159V486.322H691.287C668.96 486.322 643.268 481.499 643.268 443.59V422.618C643.268 385.606 668.512 380.56 693.194 380.56H718.999ZM695.438 400.187C672.775 400.187 667.727 403.215 666.044 419.926H749.291V416.674C749.291 403.103 732.799 400.187 718.999 400.187H695.438Z" fill="white"/>
<path d="M521.875 419.926H601.083V369.681H623.522V484.864H601.083V439.553H521.875V484.864H499.435V369.681H521.875V419.926Z" fill="white"/>
<path d="M912.309 382.016C912.309 382.016 951.911 453.12 956.85 461.871C961.786 453.123 1001.39 382.016 1001.39 382.016H1025.74L968.295 484.864H945.407L887.963 382.016H912.309Z" fill="white"/>
<path fill-rule="evenodd" clip-rule="evenodd" d="M1104.83 381.008C1131.87 381.008 1158.13 383.924 1158.13 417.122V484.864H1066.02C1042.34 484.864 1032.24 475.555 1032.24 453.797V447.516C1032.24 422.057 1052.44 420.038 1078.8 420.038H1104.61C1104.61 420.038 1130.3 420.486 1135.8 420.486V416.786C1135.8 403.551 1129.74 400.523 1103.49 400.523H1036.73L1036.17 381.008H1104.83ZM1077.91 439.665C1056.59 439.665 1054.57 442.918 1054.57 451.33V454.358C1054.57 461.423 1054.57 466.245 1077.23 466.245H1135.69V439.665H1077.91Z" fill="white"/>
<path d="M1199.52 465.237H1261.34C1255.06 471.854 1248.11 478.359 1240.59 484.864H1176.98V379.774H1199.52V465.237Z" fill="white"/>
<path d="M878.427 400.411H841.066C824.799 400.411 819.077 410.729 819.077 420.374V484.078H796.637V382.466H817.954V390.204C824.012 384.035 832.652 380.896 844.208 380.896H878.427V400.411Z" fill="white"/>
<path d="M682.244 225.613C838.588 156.618 1297 43.4996 1356.89 203.877C1393.17 301.045 1179.17 491.683 829.353 631.514C494.462 765.379 179.256 771.14 131.673 660.828C98.9655 585 215.5 468 299.5 421.5C197.5 497 124.889 593.743 147.336 645.784C192.453 750.384 493.244 727.784 820.462 605.222C1164 456.5 1383.7 295 1336.5 194.5C1289.3 93.9995 969 119 682.244 225.613Z" fill="#3722B1"/>
<path d="M282.688 700.105C286.871 699.817 290.576 702.825 291.154 706.977L291.2 707.396L295.938 762.073C296.366 767.01 292.248 771.145 287.309 770.736L233.324 766.272C229.428 765.949 226.336 762.86 226.011 758.965L222.352 715.158C221.994 710.87 225.091 707.067 229.363 706.55L282.269 700.146L282.688 700.105Z" fill="white" stroke="#3722B1" stroke-width="12"/>
<path d="M318.985 643.363C326.769 649.492 331.007 656.526 331.891 664.749C332.116 666.843 331.487 668.954 330.128 670.589C320.963 681.61 305.148 682.811 294.219 674.207C283.227 665.552 281.104 649.812 289.229 638.576C290.582 636.705 292.665 635.563 294.89 635.367C304.684 634.5 312.216 638.033 318.985 643.363Z" fill="white" stroke="#3722B1" stroke-width="12"/>
<path d="M303.97 666.123C318.477 667.569 326.684 673.231 329.4 675.461C331.107 676.863 331.968 678.782 332.172 680.612L332.204 680.977L339.341 791.116C339.398 791.985 339.333 793.175 338.809 794.45C338.142 796.074 336.478 799.073 332.709 801.876C328.945 804.677 323.396 807.049 315.321 807.919C298.404 809.741 288.523 800.475 286.049 797.789C284.747 796.374 284.144 794.66 284.029 793.08L275.627 677.428C275.452 675.017 276.403 672.126 279.073 670.398L279.393 670.195C282.838 668.065 290.585 664.79 303.97 666.123Z" fill="white" stroke="#3722B1" stroke-width="12"/>
<path d="M397.689 685.37C402.08 684.801 406.11 687.929 406.648 692.324L406.69 692.767L412.298 775.912C412.635 780.914 408.342 784.989 403.364 784.393L321.776 774.62C317.926 774.158 314.961 771.001 314.741 767.129L311.419 708.466C311.191 704.445 313.988 700.882 317.948 700.147L397.25 685.439L397.689 685.37Z" fill="white" stroke="#3722B1" stroke-width="12"/>
</g>
<defs>
<clipPath id="clip0_682_572">
<rect width="1484" height="837" fill="white"/>
</clipPath>
</defs>
</svg>
