<svg width="1128" height="381" viewBox="0 0 1128 381" fill="none" xmlns="http://www.w3.org/2000/svg">
<g clip-path="url(#clip0_696_12)">
<path d="M1080.76 108.706C899.459 36.2532 454.61 -31.4888 86.3895 15.6165C29.7315 22.7945 0 44.4405 0 76.0684C0 169.27 386.957 341.765 690.666 378.889C723.09 382.814 797.811 383.599 842.352 371.262C973.058 335.036 1088.28 257.2 1119.25 192.262C1137.42 154.016 1128.78 127.997 1080.65 108.706" fill="white"/>
<path fill-rule="evenodd" clip-rule="evenodd" d="M540.999 152.559C567.028 152.559 593.731 157.942 593.731 197.533V211.44H487.708V214.244C487.708 233.423 495.225 238.694 523.049 238.694H592.159V258.321H513.287C490.961 258.321 465.269 253.498 465.269 215.59V194.617C465.269 157.606 490.512 152.559 515.195 152.559H540.999ZM517.438 172.186C494.775 172.186 489.727 175.214 488.044 191.925H571.291V188.673C571.291 175.103 554.799 172.186 540.999 172.186H517.438Z" fill="black"/>
<path d="M343.875 191.925H423.083V141.68H445.522V256.863H423.083V211.552H343.875V256.863H321.436V141.68H343.875V191.925Z" fill="black"/>
<path d="M734.309 154.016C734.309 154.016 773.912 225.12 778.85 233.871C783.787 225.122 823.391 154.016 823.391 154.016H847.738L790.295 256.863H767.408L709.963 154.016H734.309Z" fill="black"/>
<path fill-rule="evenodd" clip-rule="evenodd" d="M926.834 153.008C953.873 153.008 980.127 155.923 980.127 189.121V256.863H888.015C864.343 256.863 854.245 247.555 854.245 225.797V219.516C854.245 194.056 874.44 192.037 900.805 192.037H926.61C926.61 192.037 952.301 192.486 957.8 192.486V188.785C957.8 175.551 951.741 172.522 925.488 172.522H858.733L858.172 153.008H926.834ZM899.907 211.664C878.591 211.664 876.572 214.918 876.572 223.329V226.357C876.572 233.423 876.572 238.245 899.235 238.245H957.688V211.664H899.907Z" fill="black"/>
<path d="M1021.53 237.236H1083.34C1077.06 243.854 1070.11 250.359 1062.59 256.863H998.975V151.774H1021.53V237.236Z" fill="black"/>
<path d="M700.427 172.41H663.067C646.799 172.41 641.077 182.728 641.077 192.374V256.078H618.638V154.466H639.954V162.203C646.012 156.035 654.652 152.896 666.208 152.896H700.427V172.41Z" fill="black"/>
</g>
<defs>
<clipPath id="clip0_696_12">
<rect width="1128" height="381" fill="white"/>
</clipPath>
</defs>
</svg>
