<svg width="1484" height="711" viewBox="0 0 1484 711" fill="none" xmlns="http://www.w3.org/2000/svg">
<g clip-path="url(#clip0_689_615)">
<path d="M682.244 105.431C838.5 29.317 1297 -76.6827 1356.89 83.6946C1393.17 180.863 1179.17 371.501 829.353 511.332C494.462 645.197 179.256 650.958 131.674 540.646C98.9656 464.818 185.5 367.817 299.5 301.317C188 377.817 126.94 478.317 147.336 525.602C192.453 630.202 493.244 607.602 820.462 485.04C1164 336.317 1368 170.94 1330 80.8174C1292 -9.30535 963.5 13.8174 682.244 105.431Z" fill="white"/>
<path d="M1258.76 216.523C1077.46 144.071 632.61 76.3286 264.389 123.434C207.732 130.612 178 152.258 178 183.886C178 277.087 564.957 449.583 868.666 486.706C901.09 490.632 975.811 491.417 1020.35 479.08C1151.06 442.853 1266.28 365.017 1297.25 300.079C1315.42 261.834 1306.78 235.814 1258.65 216.523" fill="white"/>
<path fill-rule="evenodd" clip-rule="evenodd" d="M718.999 260.377C745.028 260.377 771.731 265.759 771.731 305.35V319.258H665.708V322.061C665.708 341.24 673.225 346.512 701.049 346.512H770.159V366.139H691.287C668.961 366.139 643.269 361.316 643.269 323.407V302.435C643.269 265.423 668.512 260.377 693.195 260.377H718.999ZM695.438 280.004C672.775 280.004 667.727 283.032 666.044 299.743H749.291V296.491C749.291 282.92 732.799 280.004 718.999 280.004H695.438Z" fill="black"/>
<path d="M521.875 299.743H601.083V249.498H623.522V364.681H601.083V319.37H521.875V364.681H499.436V249.498H521.875V299.743Z" fill="black"/>
<path d="M912.309 261.833C912.309 261.833 951.912 332.937 956.85 341.688C961.787 332.94 1001.39 261.833 1001.39 261.833H1025.74L968.295 364.681H945.408L887.963 261.833H912.309Z" fill="black"/>
<path fill-rule="evenodd" clip-rule="evenodd" d="M1104.83 260.825C1131.87 260.825 1158.13 263.741 1158.13 296.939V364.681H1066.02C1042.34 364.681 1032.24 355.372 1032.24 333.614V327.333C1032.24 301.874 1052.44 299.855 1078.81 299.855H1104.61C1104.61 299.855 1130.3 300.303 1135.8 300.303V296.603C1135.8 283.368 1129.74 280.34 1103.49 280.34H1036.73L1036.17 260.825H1104.83ZM1077.91 319.482C1056.59 319.482 1054.57 322.735 1054.57 331.147V334.175C1054.57 341.24 1054.57 346.062 1077.24 346.062H1135.69V319.482H1077.91Z" fill="black"/>
<path d="M1199.53 345.054H1261.34C1255.06 351.671 1248.11 358.176 1240.59 364.681H1176.98V259.591H1199.53V345.054Z" fill="black"/>
<path d="M878.427 280.228H841.067C824.799 280.228 819.077 290.546 819.077 300.191V363.895H796.638V262.283H817.954V270.021C824.012 263.852 832.652 260.713 844.208 260.713H878.427V280.228Z" fill="black"/>
<path d="M303.025 548.243C307.207 547.956 310.912 550.964 311.49 555.116L311.536 555.535L318.851 639.952C319.279 644.889 315.161 649.024 310.222 648.615L227.031 641.735C223.136 641.413 220.044 638.324 219.719 634.429L214.067 566.761C213.709 562.473 216.806 558.67 221.078 558.153L302.605 548.284L303.025 548.243Z" fill="black" stroke="white" stroke-width="12"/>
<path d="M354.535 462.427C365.886 471.364 371.729 481.397 372.846 492.973C373.045 495.031 372.426 497.089 371.122 498.697C358.484 514.281 336.353 516.104 321.041 504.048C305.663 491.941 302.799 469.832 314.413 454.225C315.755 452.422 317.788 451.3 319.974 451.085L320.624 451.026C334.247 449.871 344.778 454.745 354.535 462.427Z" fill="black" stroke="white" stroke-width="12"/>
<path d="M333.531 497.273C355.423 499.454 367.289 508.208 370.517 510.952C372.154 512.343 373 514.22 373.203 516.043L373.235 516.407L384.001 682.532C384.059 683.421 383.983 684.55 383.521 685.748C382.81 687.594 380.752 691.685 375.605 695.633C370.458 699.581 362.559 703.129 350.571 704.421C325.806 707.088 311.734 693.086 308.84 689.845C307.585 688.44 307.003 686.764 306.89 685.207L294.199 510.549C294.023 508.128 294.974 505.337 297.483 503.604L297.865 503.346C302.035 500.593 313.11 495.238 333.531 497.273Z" fill="black" stroke="white" stroke-width="12"/>
<path d="M476.156 525.999C480.546 525.431 484.576 528.559 485.114 532.953L485.156 533.396L493.743 660.722C494.081 665.724 489.787 669.801 484.81 669.204L360.121 654.268C356.27 653.807 353.304 650.649 353.085 646.776L347.993 556.865C347.765 552.844 350.562 549.281 354.521 548.546L475.716 526.069L476.156 525.999Z" fill="black" stroke="white" stroke-width="12"/>
</g>
<defs>
<clipPath id="clip0_689_615">
<rect width="1484" height="711" fill="white"/>
</clipPath>
</defs>
</svg>
